<svg width="25" height="24" viewBox="0 0 25 24" fill="none" xmlns="http://www.w3.org/2000/svg">
<path d="M10.5 22C10.2348 22 9.98043 21.8946 9.79289 21.7071C9.60536 21.5196 9.5 21.2652 9.5 21V11C9.5 9 10.5 7.25 11.5 7V2.5C11.5 2.36739 11.5527 2.24021 11.6464 2.14645C11.7402 2.05268 11.8674 2 12 2H13C13.1326 2 13.2598 2.05268 13.3536 2.14645C13.4473 2.24021 13.5 2.36739 13.5 2.5V7C14.5 7.25 15.5 9 15.5 11V21C15.5 21.2652 15.3946 21.5196 15.2071 21.7071C15.0196 21.8946 14.7652 22 14.5 22H10.5Z" fill="black"/>
</svg>
