<svg width="42" height="42" viewBox="0 0 42 42" fill="none" xmlns="http://www.w3.org/2000/svg">
<path d="M41.468 8.34124C40.9031 7.77509 40.1168 7.63671 39.7216 8.03388L31.7564 15.9985C31.3592 16.395 30.6215 16.3025 30.1099 15.7909C29.6023 15.2827 29.5091 14.5442 29.9056 14.1471L37.8709 6.18244C38.2667 5.78661 38.1277 5.00091 37.5642 4.43676C36.9987 3.87194 36.213 3.73359 35.8179 4.12943L27.8466 12.0887C27.4501 12.4845 26.7117 12.3927 26.2001 11.8818C25.6912 11.3729 25.5994 10.6344 25.9959 10.2379L33.9664 2.27863C34.3623 1.88212 34.2245 1.09711 33.6604 0.533623C33.0963 -0.0318562 32.3099 -0.17024 31.9141 0.226261L23.3102 8.82954C20.5068 11.641 21.4042 13.5982 23.0042 15.3705L0.865469 37.51C-0.22091 38.5964 -0.294752 40.3008 0.701816 41.2974C1.69838 42.2946 3.40346 42.2214 4.4905 41.1344L26.6292 18.9955C28.4041 20.5968 30.364 21.4963 33.1807 18.6795L41.7746 10.0862C42.1698 9.68974 42.0314 8.90472 41.468 8.34124ZM22.6622 9.47751L23.3102 8.82954L23.3202 8.8189L22.6622 9.47751ZM13.3246 23.4814L18.3506 18.4553L13.2567 13.362C9.21855 9.32318 5.18969 5.29431 2.76081 2.86541C2.4182 2.52413 1.98976 2.36779 1.51077 2.42766C1.17282 2.47024 0.675858 2.79421 0.588708 3.6258C0.233456 7.03996 2.73685 12.9655 11.6348 21.8629C12.2209 22.449 12.7837 22.9865 13.3246 23.4814ZM36.8523 36.9572C37.9394 38.0442 38.0106 39.7486 37.014 40.7459C36.0174 41.7424 34.3144 41.6693 33.2273 40.5822L22.0482 28.306C21.2831 28.2987 20.4276 28.1224 19.463 27.7319L23.5444 23.6498L26.2048 26.3102L36.8523 36.9572Z" fill="#E98A15"/>
</svg>
