<svg width="25" height="24" viewBox="0 0 25 24" fill="none" xmlns="http://www.w3.org/2000/svg">
<path d="M16 21.27L15.16 21.18C14.4 21.11 13.75 20.6 13.5 19.87C12.97 17.9051 12.97 15.8349 13.5 13.87C15.82 13.4 17.5 11.37 17.5 9C17.5 7 15.5 2 15.5 2H9.5C9.5 2 7.5 7 7.5 9C7.49976 10.1527 7.89778 11.27 8.62669 12.1629C9.3556 13.0558 10.3706 13.6695 11.5 13.9C12.03 15.86 12.03 17.94 11.5 19.9C11.26 20.62 10.62 21.13 9.87 21.21L9 21.3C9 21.3 8.5 21.28 8.5 22H16.5C16.5 21.28 16 21.27 16 21.27ZM9.94 7L10.94 4H14.06L15.06 7H9.94Z" fill="black"/>
</svg>
