<svg width="67" height="67" viewBox="0 0 67 67" fill="none" xmlns="http://www.w3.org/2000/svg">
<path d="M34.707 15.6082H32.4067C26.9387 15.6082 22.4646 20.0823 22.4646 25.5503V41.3074C22.4646 46.7753 26.9387 51.2494 32.4067 51.2494H34.707C40.1749 51.2494 44.649 46.7753 44.649 41.3074V25.5503C44.649 20.0823 40.1749 15.6082 34.707 15.6082Z" fill="#D0CFCE"/>
<path d="M33.5568 20.5764C33.0454 20.5779 32.5554 20.7817 32.1937 21.1433C31.8321 21.505 31.6283 21.995 31.6268 22.5064V27.9353C31.6285 28.4465 31.8325 28.9363 32.1941 29.2977C32.5557 29.6592 33.0456 29.8628 33.5568 29.8643C34.0681 29.8628 34.558 29.6592 34.9195 29.2977C35.2811 28.9363 35.4851 28.4465 35.4868 27.9353V22.5064C35.4853 21.995 35.2815 21.505 34.9199 21.1433C34.5583 20.7817 34.0682 20.5779 33.5568 20.5764Z" fill="#3F3F3F"/>
<path d="M32.696 16.9147C35.5128 18.1235 38.19 19.8581 38.5017 24.241C38.8628 29.3172 36.9849 38.8218 36.38 43.6496C35.9585 47.0247 34.2891 48.588 32.0716 50.3589C30.9549 51.2531 36.9728 51.1443 39.4509 49.6954C41.5781 48.4522 43.6384 46.3184 43.6635 46.9931L43.9641 22.9801C43.9641 22.9801 43.0921 16.5248 35.9929 16.522C35.9929 16.522 28.8723 16.1563 32.696 16.9147Z" fill="#9B9B9A"/>
<path d="M36.1334 50.7162H30.9809C26.3561 50.7162 22.5734 46.9335 22.5734 42.3096V24.5481C22.5734 19.9241 26.357 16.1414 30.9809 16.1414H36.1325C40.7573 16.1414 44.5401 19.9241 44.5401 24.5481V42.3096C44.5401 46.9335 40.7564 50.7162 36.1325 50.7162H36.1334Z" stroke="black" stroke-width="2" stroke-miterlimit="10" stroke-linecap="round" stroke-linejoin="round"/>
<path d="M38.4608 55.8482L33.607 60.702M28.7141 55.8482L33.5679 60.702M28.7141 11.0662L33.5679 6.2124M38.4608 11.0662L33.607 6.2124M33.6349 29.922H33.4786C32.9779 29.9208 32.4982 29.7214 32.1442 29.3674C31.7902 29.0134 31.5908 28.5336 31.5895 28.033V22.4078C31.5895 21.3693 32.4401 20.5197 33.4786 20.5197H33.6349C34.6734 20.5197 35.5239 21.3693 35.5239 22.4087V28.0349C35.5239 29.0734 34.6734 29.9239 33.6349 29.9239V29.922Z" stroke="black" stroke-width="2" stroke-miterlimit="10" stroke-linecap="round" stroke-linejoin="round"/>
</svg>
